#!OML:ASF F:\VICON\USERDATA\INSTALL\rory3\rory3.ASF
:FULLY-SPECIFIED
:DEGREES
4111
root 0.121443 17.7943 1.11083 -3.95112 -14.1134 1.12187
lowerback 13.5495 2.76325 -3.77849
upperback 3.29126 2.9103 -3.81852
thorax -4.10212 1.44717 -2.36842
lowerneck -15.1355 0.782227 -6.52613
upperneck 16.5582 0.867268 9.01283
head 7.50079 0.863394 4.15977
rclavicle -1.19271e-014 1.27222e-014
rhumerus -24.4027 12.8575 -83.5769
rradius 48.8113
rwrist -18.1417
rhand -32.3009 361.469
rfingers 7.12502
rthumb -5.53924 -28.4386
lclavicle -1.19271e-014 1.27222e-014
lhumerus 9.58241 43.7911 49.1591
lradius 60.5946
lwrist -0.246676
lhand -51.9089 42.0353
lfingers 7.12502
lthumb -24.4201 70.4989
rfemur -15.9815 6.20832 11.29
rtibia 45.1186
rfoot -23.1805 -15.7692
rtoes -7.45747
lfemur -17.8711 2.44405 -8.88895
ltibia 39.9494
lfoot -13.7362 6.42564
ltoes -14.6312
4112
root 0.0990764 17.7973 1.09736 -3.91374 -14.2247 1.2477
lowerback 13.5408 2.75403 -3.72903
upperback 3.32306 2.90533 -3.85003
thorax -4.05991 1.44397 -2.42672
lowerneck -14.9583 0.773615 -6.31428
upperneck 16.2492 0.863444 8.74527
head 7.37254 0.845743 4.02207
rclavicle -4.39314e-014 1.11319e-014
rhumerus -24.4088 12.8025 -83.5387
rradius 49.082
rwrist -18.2024
rhand -32.2966 361.271
rfingers 7.12502
rthumb -5.53512 -28.6365
lclavicle -4.39314e-014 1.11319e-014
lhumerus 9.23707 44.1463 49.0255
lradius 59.9998
lwrist 0.179717
lhand -52.0814 42.4047
lfingers 7.12502
lthumb -24.5855 70.846
rfemur -16.1732 6.22409 11.2239
rtibia 45.2333
rfoot -23.2151 -15.668
rtoes -7.26975
lfemur -17.8415 2.48783 -8.93311
ltibia 39.7837
lfoot -13.6956 6.47984
ltoes -14.3839
4113
root 0.0753662 17.8017 1.0824 -3.87236 -14.2574 1.39749
lowerback 13.5531 2.71102 -3.73762
upperback 3.34606 2.8472 -3.85576
thorax -4.04319 1.4151 -2.41784
lowerneck -14.5952 0.713138 -6.18854
upperneck 15.6983 0.819751 8.42939
head 7.13662 0.795596 3.87053
rclavicle -1.98785e-016 -2.22639e-014
rhumerus -24.3461 12.8634 -83.4801
rradius 49.2648
rwrist -18.2407
rhand -32.5002 360.868
rfingers 7.12502
rthumb -5.73171 -29.0349
lclavicle -1.98785e-016 -2.22639e-014
lhumerus 8.8484 44.514 48.918
lradius 59.4206
lwrist 0.377684
lhand -52.4118 43.1505
lfingers 7.12502
lthumb -24.9022 71.5483
rfemur -16.3519 6.19292 11.1385
rtibia 45.3291
rfoot -23.1984 -15.5822
rtoes -7.12411
lfemur -17.8253 2.39836 -9.01504
ltibia 39.604
lfoot -13.6302 6.60368
ltoes -14.3367
4114
root 0.0514977 17.804 1.06591 -3.83529 -14.3202 1.50818
lowerback 13.6781 2.68085 -3.74144
upperback 3.29852 2.79696 -3.8328
thorax -4.16343 1.39079 -2.39147
lowerneck -14.3906 0.658978 -6.01333
upperneck 15.458 0.760591 8.13684
head 7.0309 0.746982 3.7292
rclavicle -3.97569e-014 3.02153e-014
rhumerus -24.3959 12.9187 -83.4235
rradius 49.4019
rwrist -18.1737
rhand -32.6067 360.731
rfingers 7.12502
rthumb -5.83447 -29.1689
lclavicle -3.97569e-014 3.02153e-014
lhumerus 8.31625 44.747 48.7121
lradius 58.875
lwrist 0.642068
lhand -52.4922 43.3118
lfingers 7.12502
lthumb -24.9793 71.6989
rfemur -16.5311 6.14167 11.098
rtibia 45.4129
rfoot -23.1774 -15.5453
rtoes -7.29412
lfemur -17.8062 2.37205 -9.05014
ltibia 39.4379
lfoot -13.5168 6.74187
ltoes -14.6925
4115
root 0.0279853 17.8054 1.05135 -3.8299 -14.449 1.58163
lowerback 13.7686 2.64641 -3.68023
upperback 3.33016 2.75623 -3.81106
thorax -4.17813 1.36995 -2.39941
lowerneck -14.5111 0.612591 -5.9685
upperneck 15.4741 0.707443 8.04915
head 7.06217 0.718304 3.68975
rclavicle -3.97569e-015 3.02153e-014
rhumerus -24.3102 12.9884 -83.3667
rradius 49.4863
rwrist -18.1243
rhand -32.6104 360.883
rfingers 7.12502
rthumb -5.83806 -29.0169
lclavicle -3.97569e-015 3.02153e-014
lhumerus 7.94184 45.0673 48.6279
lradius 58.368
lwrist 1.01206
lhand -52.4033 42.9199
lfingers 7.12502
lthumb -24.894 71.3189
rfemur -16.6957 6.12037 11.0937
rtibia 45.524
rfoot -23.2723 -15.4743
rtoes -7.60824
lfemur -17.7602 2.38832 -9.02934
ltibia 39.2962
lfoot -13.4145 6.87318
ltoes -14.272
4116
root 0.004272 17.8065 1.03866 -3.80963 -14.6252 1.56603
lowerback 13.7718 2.62734 -3.5197
upperback 3.39263 2.75932 -3.75167
thorax -4.10958 1.36992 -2.42506
lowerneck -14.5646 0.559256 -6.0435
upperneck 15.4653 0.651314 8.06348
head 7.0726 0.689074 3.70217
rclavicle -1.5704e-014 -8.74653e-015
rhumerus -24.2911 12.9911 -83.277
rradius 49.66
rwrist -18.0505
rhand -32.7715 361.296
rfingers 7.12502
rthumb -5.99358 -28.5988
lclavicle -1.5704e-014 -8.74653e-015
lhumerus 7.80911 45.4673 48.8304
lradius 57.8753
lwrist 1.21255
lhand -52.2988 42.6042
lfingers 7.12502
lthumb -24.7939 71.017
rfemur -16.8703 6.16484 11.192
rtibia 45.6445
rfoot -23.3101 -15.3565
rtoes -7.68311
lfemur -17.7105 2.44596 -8.90345
ltibia 39.1786
lfoot -13.3474 6.97338
ltoes -13.8489
4117
root -0.0207765 17.8027 1.02157 -3.7362 -14.7999 1.54806
lowerback 13.8389 2.61378 -3.40667
upperback 3.36361 2.75495 -3.68629
thorax -4.17488 1.36724 -2.42333
lowerneck -14.4497 0.529038 -6.01447
upperneck 15.3852 0.60416 8.0481
head 7.03054 0.664509 3.68403
rclavicle 4.57205e-015 1.35174e-014
rhumerus -24.4017 12.955 -83.2055
rradius 49.9041
rwrist -18.0148
rhand -32.8783 361.318
rfingers 7.12502
rthumb -6.09671 -28.5745
lclavicle 4.57205e-015 1.35174e-014
lhumerus 7.45192 45.7082 48.8432
lradius 57.5275
lwrist 1.48978
lhand -52.1311 42.3145
lfingers 7.12502
lthumb -24.6332 70.7493
rfemur -17.1345 6.19878 11.3019
rtibia 45.7742
rfoot -23.1695 -15.1941
rtoes -7.23464
lfemur -17.6902 2.52145 -8.75851
ltibia 39.0394
lfoot -13.2983 6.99034
ltoes -14.0451
4118
root -0.0442139 17.7999 1.00393 -3.69137 -14.9682 1.5037
lowerback 13.949 2.58583 -3.22569
upperback 3.35839 2.73941 -3.63163
thorax -4.23502 1.3583 -2.47043
lowerneck -14.3799 0.501858 -6.02367
upperneck 15.3118 0.554916 8.1263
head 6.99808 0.645864 3.70395
rclavicle -2.42517e-014 1.27222e-014
rhumerus -24.4385 12.9334 -83.1412
rradius 50.0902
rwrist -18.0338
rhand -32.6529 361.099
rfingers 7.12502
rthumb -5.87908 -28.7996
lclavicle -2.42517e-014 1.27222e-014
lhumerus 7.22589 45.978 48.9417
lradius 57.2262
lwrist 1.68938
lhand -51.8417 42.0906
lfingers 7.12502
lthumb -24.3557 70.5629
rfemur -17.339 6.20475 11.436
rtibia 45.8833
rfoot -23.108 -15.1197
rtoes -7.25956
lfemur -17.6162 2.5739 -8.59918
ltibia 38.8833
lfoot -13.2613 7.05157
ltoes -14.4674
4119
root -0.066324 17.8052 0.991312 -3.77487 -15.073 1.69807
lowerback 14.0366 2.55138 -3.22417
upperback 3.39933 2.69023 -3.63051
thorax -4.24029 1.33364 -2.46456
lowerneck -14.2813 0.499336 -6.1386
upperneck 15.2159 0.547152 8.29209
head 6.94918 0.648118 3.77357
rclavicle 6.12257e-014 -3.81667e-014
rhumerus -24.4614 12.9457 -83.0492
rradius 50.2351
rwrist -18.0326
rhand -32.4857 361.073
rfingers 7.12502
rthumb -5.71767 -28.8301
lclavicle 6.12257e-014 -3.81667e-014
lhumerus 6.94962 46.1654 49.0282
lradius 56.9668
lwrist 2.04947
lhand -51.7049 41.9771
lfingers 7.12502
lthumb -24.2246 70.467
rfemur -17.4028 6.11851 11.2936
rtibia 45.9581
rfoot -23.1494 -14.9524
rtoes -7.51458
lfemur -17.4721 2.45608 -8.73418
ltibia 38.7112
lfoot -13.176 7.29708
ltoes -14.6561
4120
root -0.089945 17.8076 0.980009 -3.77911 -15.2022 1.80417
lowerback 14.0828 2.54021 -3.14948
upperback 3.3828 2.68464 -3.59332
thorax -4.28148 1.33045 -2.46924
lowerneck -14.0493 0.480683 -6.21871
upperneck 15.0664 0.518987 8.38306
head 6.862 0.633238 3.80746
rclavicle 1.96797e-014 -1.35174e-014
rhumerus -24.6049 12.8426 -82.9383
rradius 50.4041
rwrist -17.9754
rhand -32.5106 361.082
rfingers 7.12502
rthumb -5.74169 -28.8199
lclavicle 1.96797e-014 -1.35174e-014
lhumerus 6.55737 46.1313 49.0809
lradius 56.7745
lwrist 2.51844
lhand -51.9718 42.2234
lfingers 7.12502
lthumb -24.4805 70.679
rfemur -17.5332 6.01743 11.2493
rtibia 46.0114
rfoot -23.0267 -14.723
rtoes -7.34925
lfemur -17.3962 2.4009 -8.76488
ltibia 38.5327
lfoot -13.0834 7.52997
ltoes -14.8988
4121
root -0.115231 17.8096 0.96987 -3.78445 -15.3744 1.80482
lowerback 14.0677 2.53479 -2.9835
upperback 3.41309 2.70747 -3.52005
thorax -4.23704 1.34052 -2.48722
lowerneck -13.9157 0.425662 -6.24385
upperneck 14.974 0.451551 8.35603
head 6.81449 0.594182 3.79234
rclavicle 1.74931e-014 1.51076e-014
rhumerus -24.6475 12.8197 -82.8007
rradius 50.4977
rwrist -18.0982
rhand -32.6021 360.909
rfingers 7.12502
rthumb -5.83007 -28.9908
lclavicle 1.74931e-014 1.51076e-014
lhumerus 6.36402 46.1856 49.3354
lradius 56.6247
lwrist 2.74315
lhand -52.2074 42.9072
lfingers 7.12502
lthumb -24.7063 71.332
rfemur -17.6221 5.97053 11.3448
rtibia 46.0677
rfoot -22.929 -14.5672
rtoes -7.34175
lfemur -17.2772 2.51994 -8.66766
ltibia 38.3487
lfoot -12.9637 7.63033
ltoes -14.7044
4122
root -0.138459 17.8121 0.958799 -3.76998 -15.4407 1.93549
lowerback 14.0291 2.4909 -2.93429
upperback 3.41922 2.66255 -3.45699
thorax -4.21133 1.3182 -2.43825
lowerneck -13.802 0.369994 -6.32901
upperneck 14.9296 0.391365 8.34685
head 6.78491 0.557215 3.79533
rclavicle 2.68359e-014 1.43125e-014
rhumerus -24.6904 12.8567 -82.6308
rradius 50.5699
rwrist -18.2046
rhand -32.7205 360.944
rfingers 7.12502
rthumb -5.94441 -28.9526
lclavicle 2.68359e-014 1.43125e-014
lhumerus 6.1688 46.3363 49.6698
lradius 56.4991
lwrist 2.69168
lhand -52.3111 43.3526
lfingers 7.12502
lthumb -24.8057 71.7637
rfemur -17.7551 5.86932 11.2761
rtibia 46.1625
rfoot -22.9764 -14.5065
rtoes -7.54303
lfemur -17.2432 2.49545 -8.74231
ltibia 38.1921
lfoot -12.8399 7.81103
ltoes -14.5031
4123
root -0.160199 17.8102 0.943948 -3.76173 -15.4999 2.16542
lowerback 14.0468 2.43045 -2.957
upperback 3.40917 2.57861 -3.44549
thorax -4.23468 1.27698 -2.39991
lowerneck -13.7027 0.34781 -6.33146
upperneck 14.8912 0.362181 8.32296
head 6.75769 0.538892 3.78291
rclavicle 7.95139e-015 -3.10104e-014
rhumerus -24.6844 12.787 -82.5319
rradius 50.5833
rwrist -18.1688
rhand -32.5862 361.149
rfingers 7.12502
rthumb -5.81473 -28.7515
lclavicle 7.95139e-015 -3.10104e-014
lhumerus 6.03915 46.524 50.0166
lradius 56.3953
lwrist 2.60644
lhand -52.4159 43.8673
lfingers 7.12502
lthumb -24.9062 72.2646
rfemur -17.9613 5.76807 11.0941
rtibia 46.2857
rfoot -23.0522 -14.4866
rtoes -8.13742
lfemur -17.2239 2.42075 -8.91621
ltibia 38.0459
lfoot -12.7703 7.9772
ltoes -15.1831
4124
root -0.182905 17.8056 0.93041 -3.75418 -15.6252 2.33824
lowerback 14.033 2.40852 -2.9329
upperback 3.46224 2.55646 -3.43192
thorax -4.17126 1.26561 -2.39273
lowerneck -13.7155 0.303069 -6.28591
upperneck 14.7994 0.303322 8.28258
head 6.73568 0.509637 3.75463
rclavicle -5.96354e-015 2.70347e-014
rhumerus -24.5962 12.6544 -82.4054
rradius 50.5779
rwrist -18.1427
rhand -32.4651 361.226
rfingers 7.12502
rthumb -5.69776 -28.6775
lclavicle -5.96354e-015 2.70347e-014
lhumerus 6.10205 46.6625 50.5382
lradius 56.3745
lwrist 2.54024
lhand -52.5377 44.1481
lfingers 7.12502
lthumb -25.0228 72.5291
rfemur -18.1755 5.72479 10.9795
rtibia 46.4303
rfoot -23.0602 -14.3919
rtoes -8.56953
lfemur -17.1554 2.42006 -9.01388
ltibia 37.8846
lfoot -12.6906 8.10484
ltoes -15.8835
4125
root -0.207943 17.8076 0.917581 -3.7177 -15.7731 2.45698
lowerback 14.0215 2.3735 -2.87223
upperback 3.49337 2.52173 -3.41004
thorax -4.13126 1.24789 -2.39605
lowerneck -13.7947 0.277452 -6.2972
upperneck 14.788 0.263152 8.35141
head 6.74884 0.496984 3.77623
rclavicle 5.02925e-014 -1.35174e-014
rhumerus -24.5433 12.6356 -82.3208
rradius 50.6154
rwrist -18.1001
rhand -32.5022 360.904
rfingers 7.12502
rthumb -5.73359 -28.9989
lclavicle 5.02925e-014 -1.35174e-014
lhumerus 5.87057 46.7052 50.8225
lradius 56.5544
lwrist 2.56138
lhand -52.4543 43.9112
lfingers 7.12502
lthumb -24.9429 72.3034
rfemur -18.3861 5.69329 10.93
rtibia 46.5729
rfoot -23.0472 -14.1638
rtoes -8.45307
lfemur -17.0898 2.48757 -9.06034
ltibia 37.7076
lfoot -12.5706 8.29213
ltoes -16.3607
